<svg width="26" height="31" viewBox="0 0 26 31" fill="none" xmlns="http://www.w3.org/2000/svg">
<g clip-path="url(#clip0)">
<path fill-rule="evenodd" clip-rule="evenodd" d="M12.2027 20.2957C11.4267 19.8157 8.15199 17.7982 8.15199 17.7982C8.15199 17.7982 4.87882 15.7776 4.10169 15.2995C4.02746 15.2539 3.93261 15.3054 3.92849 15.393C3.91993 15.5761 3.90726 15.844 3.90038 15.9937C3.89718 16.0663 3.9155 16.1374 3.95384 16.199C4.12506 16.4742 4.62955 17.2847 4.88371 17.6937C4.97947 17.8479 5.00804 18.035 4.96267 18.2112L4.30575 20.7632C4.27948 20.8657 4.31537 20.9735 4.39754 21.0394C4.73616 21.3107 5.15466 21.6092 5.65931 21.9203C6.16365 22.2316 6.61789 22.4713 7.01149 22.6514C7.10696 22.6951 7.21845 22.6781 7.2965 22.6078L9.24467 20.8521C9.37923 20.7309 9.55702 20.671 9.73664 20.6867C10.2127 20.7282 11.1566 20.8111 11.4775 20.8393C11.5495 20.8456 11.621 20.8296 11.6834 20.7933C11.8122 20.7188 12.0424 20.5852 12.1995 20.4941C12.2748 20.4504 12.2768 20.3415 12.2027 20.2957Z" fill="white"/>
<path fill-rule="evenodd" clip-rule="evenodd" d="M6.69603 23.5239C6.66239 23.3194 6.53226 23.1433 6.34676 23.0509C5.82714 22.7917 5.41395 22.5438 5.30094 22.4748C5.18794 22.4058 4.77872 22.1513 4.31094 21.807C4.14411 21.6842 3.92803 21.6489 3.73076 21.7123L3.61791 21.7486C2.83419 22.001 2.23031 22.6307 2.01133 23.4248C1.47458 25.3709 0.464089 29.0354 0.00976432 30.6828C-0.0570617 30.9248 0.234404 31.1027 0.418978 30.9329C1.67644 29.7761 4.47334 27.203 5.95865 25.8363C6.56467 25.2788 6.8488 24.4538 6.71515 23.6411L6.69603 23.5239Z" fill="white"/>
<path fill-rule="evenodd" clip-rule="evenodd" d="M25.4467 1.36525C25.6845 1.04857 25.542 0.808723 25.4357 0.710504C25.4357 0.710504 25.4356 0.71035 25.4354 0.710196C25.3233 0.62183 25.187 0.558865 25.0302 0.535004L21.5843 0.0098865C21.2645 -0.0387611 20.9445 0.094558 20.7526 0.356116L18.8723 2.91889C18.583 3.313 18.6821 3.83242 19.019 4.11168C19.0435 4.13231 19.0502 4.16833 19.0332 4.19651C19.019 4.21975 18.9918 4.23099 18.9666 4.22714L18.0183 4.08258L16.712 3.88353C16.3484 3.82826 15.9844 3.97959 15.7662 4.27717L10.2698 11.7688C10.1983 11.8662 10.0647 11.8928 9.96168 11.8303L4.67056 8.61759C4.32066 8.40514 3.86404 8.52337 3.66054 8.88269C3.46224 9.23276 3.60311 9.68091 3.94596 9.8892L4.08271 9.97218C4.15039 10.0131 4.18683 10.091 4.17504 10.1697L4.01441 11.2402C3.9991 11.3431 3.88471 11.397 3.79636 11.3432C3.79636 11.3432 3.0416 10.8922 3.02231 10.8803C2.39648 10.4951 1.57848 10.693 1.19536 11.3221C0.854191 11.8825 0.973783 12.5951 1.44572 13.0167C1.46027 13.0299 1.59716 13.1358 1.63253 13.1575C1.6333 13.158 1.63406 13.1586 1.63483 13.1589C1.63498 13.1591 1.63514 13.1592 1.63514 13.1592L5.58778 15.5921C7.72436 16.8894 9.34841 15.8256 9.85541 15.4441C10.3055 15.1054 10.8167 14.7315 11.6697 15.2521C11.9753 15.4389 12.3612 15.4319 12.669 15.2486L13.6529 14.6625C13.9433 14.4896 14.3048 14.4912 14.5939 14.6665L17.591 16.4865C17.7088 16.5579 17.8613 16.5276 17.9431 16.4163L25.2688 6.44692C25.8663 5.64577 25.4241 5.25613 25.0601 5.16037C25.0367 5.15499 25.0138 5.14837 24.9897 5.14467L23.2327 4.87711C23.2068 4.87295 23.1808 4.86187 23.1569 4.84724C23.0595 4.78751 23.0289 4.65912 23.0884 4.56106C23.6839 3.75237 25.4467 1.36525 25.4467 1.36525Z" fill="white"/>
</g>
<defs>
<clipPath id="clip0">
<rect width="26" height="31" fill="white"/>
</clipPath>
</defs>
</svg>
